<svg xmlns="http://www.w3.org/2000/svg" viewBox="0 0 424.841 324.439">
  <defs>
    <style>
      .cls-1 {
        fill: #30b8cd;
      }

      .cls-2 {
        fill: #4869b7;
      }

      .cls-3 {
        fill: #314967;
      }
    </style>
  </defs>
  <g id="_16_Clothes" data-name="16 Clothes" transform="translate(-14.24 -26)">
    <path id="Path_124" data-name="Path 124" class="cls-1" d="M322.785,318.287a17.076,17.076,0,0,1-17.076,17.076H134.952a17.076,17.076,0,0,1-17.076-17.076V148.725L81.59,184.968a17.076,17.076,0,0,1-24.162,0L21.185,148.725a17.076,17.076,0,0,1,0-24.162C117.108,28.726,114.2,28,128.463,28H312.027a25.614,25.614,0,0,1,18.1,7.513l89.093,89.093a17.076,17.076,0,0,1,0,24.162l-36.243,36.243a17.076,17.076,0,0,1-24.162,0l-36.03-36.286Z" transform="translate(6.331 6.538)"/>
    <path id="Path_125" data-name="Path 125" class="cls-2" d="M139.379,28A42.689,42.689,0,1,1,54,28Z" transform="translate(129.972 6.538)"/>
    <path id="Path_126" data-name="Path 126" class="cls-3" d="M320.577,214.511v65.272a8.538,8.538,0,0,1-8.538,8.538H141.282a8.538,8.538,0,0,1-8.538-8.538V110.221a8.538,8.538,0,0,0-14.557-6.019L81.944,140.445a8.538,8.538,0,0,1-12.081,0L33.62,104.2a8.538,8.538,0,0,1,0-12.081L72.04,53.7A8.538,8.538,0,0,0,60.173,41.577L21.752,80a25.614,25.614,0,0,0,0,36.243l36.2,36.243a25.614,25.614,0,0,0,36.243,0l21.473-21.643V279.783A25.614,25.614,0,0,0,141.282,305.4H312.04a25.614,25.614,0,0,0,25.614-25.614V214.511a8.538,8.538,0,1,0-17.076,0Z" transform="translate(0 45.042)"/>
    <path id="Path_127" data-name="Path 127" class="cls-3" d="M86,77.138V95.153a8.538,8.538,0,0,0,17.076,0V77.138a8.538,8.538,0,1,0-17.076,0Z" transform="translate(234.577 139.256)"/>
    <path id="Path_128" data-name="Path 128" class="cls-3" d="M383.57,125.082C287.86,29.2,289.312,26,270.486,26H86.922c-18.228,0-24.119,9.989-55.5,41.281A8.543,8.543,0,1,0,43.507,79.362C77.1,45.808,77.658,43.076,86.879,43.076h41.409A51.227,51.227,0,0,0,211.532,73.9,8.538,8.538,0,0,0,200.6,60.792,34.151,34.151,0,0,1,145.62,43.076H211.7a33.718,33.718,0,0,1-1.75,5.123,8.554,8.554,0,1,0,15.667,6.873,50.716,50.716,0,0,0,3.5-12h41.409c9.733,0,4.013-3.031,101.174,93.916a8.538,8.538,0,0,1,0,12.081l-36.243,36.243a8.538,8.538,0,0,1-12.081,0l-36.243-36.243a8.538,8.538,0,0,0-14.557,6.19v37.481a8.538,8.538,0,0,0,17.076,0V175.669L311.3,197.312a25.614,25.614,0,0,0,36.243,0l36.03-35.987a25.614,25.614,0,0,0,0-36.243Z" transform="translate(48)"/>
  </g>
</svg>
