<svg id="help-button" xmlns="http://www.w3.org/2000/svg" xmlns:xlink="http://www.w3.org/1999/xlink" viewBox="0 0 67.692 67.692">
  <defs>
    <style>
      .cls-1 {
        fill: url(#linear-gradient);
      }
    </style>
    <linearGradient id="linear-gradient" x1="0.5" x2="0.5" y2="1" gradientUnits="objectBoundingBox">
      <stop offset="0" stop-color="#2e72e3"/>
      <stop offset="1" stop-color="#58c8f2"/>
    </linearGradient>
  </defs>
  <g id="Group_72" data-name="Group 72">
    <path id="Path_138" data-name="Path 138" class="cls-1" d="M216.629,336.033a2.436,2.436,0,0,0-2.429,2.429v1.619a2.429,2.429,0,1,0,4.858,0v-1.619A2.436,2.436,0,0,0,216.629,336.033Z" transform="translate(-183.593 -288.017)"/>
    <path id="Path_139" data-name="Path 139" class="cls-1" d="M33.846,67.692A33.846,33.846,0,1,0,0,33.846,33.883,33.883,0,0,0,33.846,67.692Zm0-62.834A28.988,28.988,0,1,1,4.858,33.846,29.01,29.01,0,0,1,33.846,4.858Z"/>
    <path id="Path_140" data-name="Path 140" class="cls-1" d="M148.872,106.213h0a2.368,2.368,0,0,0,2.429-2.348,9.9,9.9,0,0,1,1.012-3.846c1.215-2.429,3.36-3.644,6.518-3.644,2.955,0,5.142.81,6.356,2.389a5.728,5.728,0,0,1,.81,5.02c-.607,2.389-2.672,4.453-4.656,6.478-2.429,2.51-4.98,5.061-4.98,8.5a2.429,2.429,0,1,0,4.858,0c0-1.457,1.741-3.239,3.6-5.1,2.308-2.348,4.939-5.02,5.87-8.664a10.409,10.409,0,0,0-1.66-9.19c-1.5-1.943-4.494-4.291-10.162-4.291-6.356,0-9.393,3.4-10.85,6.316a14.917,14.917,0,0,0-1.538,6.032A2.359,2.359,0,0,0,148.872,106.213Z" transform="translate(-125.552 -78.44)"/>
  </g>
</svg>
