<svg id="writing-notepad" xmlns="http://www.w3.org/2000/svg" xmlns:xlink="http://www.w3.org/1999/xlink" viewBox="0 0 52.911 67.126">
  <defs>
    <style>
      .cls-1 {
        fill: url(#linear-gradient);
      }
    </style>
    <linearGradient id="linear-gradient" x1="0.5" x2="0.5" y2="1" gradientUnits="objectBoundingBox">
      <stop offset="0" stop-color="#2e72e3"/>
      <stop offset="1" stop-color="#58c8f2"/>
    </linearGradient>
  </defs>
  <g id="Group_10" data-name="Group 10" transform="translate(0)">
    <path id="Path_19" data-name="Path 19" class="cls-1" d="M51,13.188V64.6a2.517,2.517,0,0,0,2.369,2.527h48.173a2.517,2.517,0,0,0,2.369-2.527V13.188a2.517,2.517,0,0,0-2.369-2.527H94.435v-3.4a2.517,2.517,0,0,0-2.369-2.527H84.089C83.063,3.159,80.93,0,77.456,0,74.3,0,72.125,2.764,70.98,4.738H63.241a2.517,2.517,0,0,0-2.369,2.527v3.593c-.118-.039-.276-.2-.395-.2H53.369A2.517,2.517,0,0,0,51,13.188ZM65.61,9.477h6.91a2.316,2.316,0,0,0,2.251-1.54c.355-.987,1.5-3.08,2.685-3.08,1.264,0,2.527,2.132,2.922,3.159a2.324,2.324,0,0,0,2.211,1.461H89.7V20.533H65.61ZM55.738,15.4h4.738c.118,0,.276.158.395.118V23.06a2.246,2.246,0,0,0,2.369,2.211H92.065a2.246,2.246,0,0,0,2.369-2.211V15.4h4.738V62.388H55.738Z" transform="translate(-51)"/>
  </g>
</svg>
