<svg xmlns="http://www.w3.org/2000/svg" xmlns:xlink="http://www.w3.org/1999/xlink" viewBox="0 0 59.913 46.948">
  <defs>
    <style>
      .cls-1 {
        fill: url(#linear-gradient);
      }
    </style>
    <linearGradient id="linear-gradient" x1="0.5" x2="0.5" y2="1" gradientUnits="objectBoundingBox">
      <stop offset="0" stop-color="#2e72e3"/>
      <stop offset="1" stop-color="#58c8f2"/>
    </linearGradient>
  </defs>
  <g id="share-arrow" transform="translate(59.913) rotate(90)">
    <g id="Group_29" data-name="Group 29" transform="translate(0 0)">
      <path id="Path_47" data-name="Path 47" class="cls-1" d="M92.405,171.954H82.63a2.309,2.309,0,0,0,0,4.618h7.427v27.323H52.345V176.572h8.2a2.309,2.309,0,0,0,0-4.618H50a2.385,2.385,0,0,0-2.271,2.424V206.4A2.126,2.126,0,0,0,50,208.512H92.405a2.126,2.126,0,0,0,2.271-2.116V174.378A2.385,2.385,0,0,0,92.405,171.954Z" transform="translate(-47.727 -148.599)"/>
      <path id="Path_48" data-name="Path 48" class="cls-1" d="M127.218,40.672a2.316,2.316,0,0,0,2.309-2.309V7.077l9.851,8.774a2.317,2.317,0,1,0,3.079-3.463L129.18.573A2.323,2.323,0,0,0,126.217.5a2.324,2.324,0,0,0-1,.924L113.71,12.464a2.314,2.314,0,1,0,3.194,3.348l8-7.7V38.363A2.316,2.316,0,0,0,127.218,40.672Z" transform="translate(-104.128 0)"/>
    </g>
  </g>
</svg>
