<svg xmlns="http://www.w3.org/2000/svg" viewBox="0 0 353 350.117">
  <defs>
    <style>
      .cls-1 {
        fill: #30b8cd;
      }

      .cls-2 {
        fill: #f8991d;
      }

      .cls-3 {
        fill: #f8db94;
      }

      .cls-4 {
        fill: #314967;
      }
    </style>
  </defs>
  <g id="_05_Wallet" data-name="05 Wallet" transform="translate(-17 -17.792)">
    <path id="Path_32" data-name="Path 32" class="cls-1" d="M263.138,58.991a14.557,14.557,0,0,0-17.5-10.918L215.32,55.206l-13.465-27.33a14.557,14.557,0,0,0-19.506-6.587L37,93.381H271.29Z" transform="translate(52.784 5.229)"/>
    <rect id="Rectangle_2" data-name="Rectangle 2" class="cls-2" width="327.526" height="262.021" rx="6" transform="translate(24.278 98.61)"/>
    <rect id="Rectangle_3" data-name="Rectangle 3" class="cls-3" width="131.01" height="101.897" rx="4" transform="translate(231.711 178.672)"/>
    <path id="Path_33" data-name="Path 33" class="cls-4" d="M82.963,55.835l66.706-15.576a7.278,7.278,0,0,1,8.734,5.386l3.13,13.465A7.278,7.278,0,0,0,175.689,55.8l-3.13-13.465a21.835,21.835,0,0,0-26.238-16.3L79.615,41.642a7.291,7.291,0,0,0,3.348,14.193Z" transform="translate(150.423 20.213)"/>
    <path id="Path_34" data-name="Path 34" class="cls-4" d="M31.557,267.577V120.445a14.557,14.557,0,0,1,14.557-14.557H261.371a7.278,7.278,0,1,0,0-14.557H167.917l45.162-10.554a7.278,7.278,0,0,0-3.2-14.193L135.855,83.871,238.371,33.1a7.278,7.278,0,0,1,9.753,3.275l3.639,7.46A7.283,7.283,0,0,0,264.828,37.4l-3.639-7.5A21.835,21.835,0,0,0,232.075,20L87.964,91.332H46.113A29.113,29.113,0,0,0,17,120.445V267.577a7.278,7.278,0,1,0,14.557,0Z" transform="translate(0 0)"/>
    <path id="Path_35" data-name="Path 35" class="cls-4" d="M256.421,156.713H46.113a14.557,14.557,0,0,1-14.557-14.557V99.578a7.278,7.278,0,1,0-14.557,0v42.578A29.113,29.113,0,0,0,46.113,171.27H256.421a7.278,7.278,0,1,0,0-14.557Z" transform="translate(0 196.639)"/>
    <path id="Path_36" data-name="Path 36" class="cls-4" d="M158.675,101.148v36.865a14.557,14.557,0,0,1-14.557,14.557H94.7a7.278,7.278,0,0,0,0,14.557h49.42a29.113,29.113,0,0,0,29.113-29.113V101.148a7.278,7.278,0,1,0-14.557,0Z" transform="translate(185.851 200.783)"/>
    <path id="Path_37" data-name="Path 37" class="cls-4" d="M208.649,121.01v-53.9A29.113,29.113,0,0,0,179.536,38H137.868a7.278,7.278,0,1,0,0,14.557h41.669a14.557,14.557,0,0,1,14.557,14.557v50.948H95.835A21.835,21.835,0,0,0,74,139.9a7.278,7.278,0,1,0,14.557,0,7.278,7.278,0,0,1,7.278-7.278h101.9a7.278,7.278,0,0,1,7.278,7.278v36.392a7.278,7.278,0,1,0,14.557,0V139.9a21.835,21.835,0,0,0-10.918-18.887Z" transform="translate(150.433 53.332)"/>
    <path id="Path_38" data-name="Path 38" class="cls-4" d="M205.01,110.714v14.557a7.278,7.278,0,0,1-7.278,7.278H95.835a7.278,7.278,0,0,1-7.278-7.278V78.4A7.278,7.278,0,0,0,74,78.4v46.873a21.835,21.835,0,0,0,21.835,21.835h101.9a21.835,21.835,0,0,0,21.835-21.835V110.714a7.278,7.278,0,1,0-14.557,0Z" transform="translate(150.433 140.741)"/>
    <circle id="Ellipse_2" data-name="Ellipse 2" class="cls-4" cx="18.196" cy="18.196" r="18.196" transform="translate(259.187 211.425)"/>
  </g>
</svg>
