<svg xmlns="http://www.w3.org/2000/svg" viewBox="0 0 32 32">
  <defs>
    <style>
      .cls-1 {
        fill: #444;
      }
    </style>
  </defs>
  <path id="qrcode" class="cls-1" d="M10,2H2v8h8Zm2-2h0V12H0V0ZM4,4H8V8H4ZM30,2H22v8h8Zm2-2h0V12H20V0ZM24,4h4V8H24ZM10,22H2v8h8Zm2-2h0V32H0V20ZM4,24H8v4H4ZM14,0h2V2H14Zm2,2h2V4H16ZM14,4h2V6H14Zm2,2h2V8H16ZM14,8h2v2H14Zm2,2h2v2H16Zm-2,2h2v2H14Zm0,4h2v2H14Zm2,2h2v2H16Zm-2,2h2v2H14Zm2,2h2v2H16Zm-2,2h2v2H14Zm2,2h2v2H16Zm-2,2h2v2H14Zm2,2h2v2H16ZM30,16h2v2H30ZM2,16H4v2H2Zm2-2H6v2H4ZM0,14H2v2H0Zm8,0h2v2H8Zm2,2h2v2H10Zm2-2h2v2H12Zm6,2h2v2H18Zm2-2h2v2H20Zm2,2h2v2H22Zm2-2h2v2H24Zm2,2h2v2H26Zm2-2h2v2H28Zm2,6h2v2H30ZM18,20h2v2H18Zm2-2h2v2H20Zm2,2h2v2H22Zm4,0h2v2H26Zm2-2h2v2H28Zm2,6h2v2H30ZM18,24h2v2H18Zm2-2h2v2H20Zm4,0h2v2H24Zm2,2h2v2H26Zm2-2h2v2H28Zm2,6h2v2H30ZM20,26h2v2H20Zm2,2h2v2H22Zm2-2h2v2H24Zm2,2h2v2H26Zm-6,2h2v2H20Zm4,0h2v2H24Zm4,0h2v2H28Z"/>
</svg>
